<?xml version="1.0" encoding="utf-8"?>
<!-- Generator: Adobe Illustrator 23.0.3, SVG Export Plug-In . SVG Version: 6.00 Build 0)  -->
<svg version="1.1" id="Layer_1" xmlns="http://www.w3.org/2000/svg" xmlns:xlink="http://www.w3.org/1999/xlink" x="0px" y="0px"
	 viewBox="0 0 150 150" style="enable-background:new 0 0 150 150;" xml:space="preserve">
<style type="text/css">
	.st0{fill:none;stroke:#22222;stroke-width:5;stroke-miterlimit:10;}
	.st1{fill:none;stroke:#000000;stroke-width:5;stroke-linecap:round;stroke-miterlimit:10;}
	.st2{fill:none;stroke:#000000;stroke-width:5;stroke-linejoin:round;stroke-miterlimit:10;}
	.st3{fill:none;stroke:#000000;stroke-width:5;stroke-linecap:round;stroke-linejoin:round;stroke-miterlimit:10;}
</style>
<g>
	<path d="M121.5,101.7c-1.4,0-2.5,1.1-2.5,2.5c0,1-0.8,1.7-1.7,1.7s-1.7-0.8-1.7-1.7s0.8-1.7,1.7-1.7c1.4,0,2.5-1.1,2.5-2.5
		s-1.1-2.5-2.5-2.5c-3.7,0-6.7,3-6.7,6.7s3,6.7,6.7,6.7s6.7-3,6.7-6.7C124,102.9,122.9,101.7,121.5,101.7z"/>
	<path d="M40,101.7c-1.4,0-2.5,1.1-2.5,2.5c0,1-0.8,1.7-1.7,1.7s-1.7-0.8-1.7-1.7s0.8-1.7,1.7-1.7c1.4,0,2.5-1.1,2.5-2.5
		s-1.1-2.5-2.5-2.5c-3.7,0-6.7,3-6.7,6.7s3,6.7,6.7,6.7s6.7-3,6.7-6.7C42.5,102.9,41.4,101.7,40,101.7z"/>
	<path d="M140.5,71.8l-12.2-18c-2.1-3.1-5.7-5-9.5-5h-16.8v-2.5c0-3.6-3-6.6-6.6-6.6H19.3c-3.6,0-6.6,3-6.6,6.6v60.5h9.7
		c1.2,6.3,6.7,11.1,13.3,11.1c6.6,0,12.1-4.8,13.3-11.1h48.1h5h1.8c1.2,6.3,6.7,11.1,13.3,11.1s12.1-4.8,13.3-11.1H141V91.3v-10
		v-3.8v-5.1v0L140.5,71.8z M136,82.5v3.8h-4.6c0.2-1.3,0.6-2.6,1.3-3.3c0.3-0.3,0.7-0.5,1.2-0.5H136z M116.2,76.3
		c-2,0-3.6-1.6-3.6-3.6V62.6c0-0.7,0.6-1.3,1.3-1.3h13.2L136,74v2.4H116.2z M35.7,112.8c-4.7,0-8.6-3.8-8.6-8.6s3.8-8.6,8.6-8.6
		c4.7,0,8.6,3.8,8.6,8.6S40.5,112.8,35.7,112.8z M97.1,101.7H49.1c-1.2-6.3-6.7-11.1-13.3-11.1c-6.6,0-12.1,4.8-13.3,11.1h-4.7V46.2
		c0-0.9,0.7-1.6,1.6-1.6h76.2c0.9,0,1.6,0.7,1.6,1.6v2.5V101.7z M117.3,112.8c-4.7,0-8.6-3.8-8.6-8.6s3.8-8.6,8.6-8.6
		s8.6,3.8,8.6,8.6S122,112.8,117.3,112.8z M136,101.7h-5.4c-1.2-6.3-6.7-11.1-13.3-11.1s-12.1,4.8-13.3,11.1h-1.8v-48h16.8
		c2,0,3.9,1,5.1,2.6h-10.2c-3.5,0-6.3,2.8-6.3,6.3v10.1c0,4.8,3.9,8.6,8.6,8.6h11.5c-1.7,3.1-1.5,7.1-1.5,7.6l0.1,2.4h9.6V101.7z"/>
</g>
</svg>
